<svg xmlns="http://www.w3.org/2000/svg" version="1.1" xmlns:xlink="http://www.w3.org/1999/xlink" xmlns:svgjs="http://svgjs.dev/svgjs" viewBox="0 0 800 800"><defs><linearGradient x1="50%" y1="0%" x2="50%" y2="100%" id="ffflurry-grad" gradientTransform="rotate(270)"><stop stop-color="hsl(238, 82%, 13%)" stop-opacity="1" offset="0%"></stop><stop stop-color="hsl(309, 77%, 31%)" stop-opacity="1" offset="45%"></stop><stop stop-color="hsl(225, 72%, 53%)" stop-opacity="1" offset="100%"></stop></linearGradient></defs><rect width="100%" height="100%" fill="hsl(238, 82%, 13%)"></rect><g fill="url(#ffflurry-grad)"><rect width="412" height="3" x="-94" y="26.5" rx="1.5" transform="rotate(45, 112, 28)" opacity="0.94"></rect><rect width="164" height="3" x="35" y="405.5" rx="1.5" transform="rotate(45, 117, 407)" opacity="0.69"></rect><rect width="427" height="3" x="472.5" y="542.5" rx="1.5" transform="rotate(45, 686, 544)" opacity="0.92"></rect><rect width="166" height="3" x="135" y="34.5" rx="1.5" transform="rotate(45, 218, 36)" opacity="0.36"></rect><rect width="390" height="3" x="219" y="610.5" rx="1.5" transform="rotate(45, 414, 612)" opacity="0.32"></rect><rect width="391" height="3" x="516.5" y="363.5" rx="1.5" transform="rotate(45, 712, 365)" opacity="0.56"></rect><rect width="530" height="3" x="-229" y="43.5" rx="1.5" transform="rotate(45, 36, 45)" opacity="0.46"></rect><rect width="164" height="3" x="360" y="490.5" rx="1.5" transform="rotate(45, 442, 492)" opacity="0.49"></rect><rect width="291" height="3" x="366.5" y="386.5" rx="1.5" transform="rotate(45, 512, 388)" opacity="0.11"></rect><rect width="389" height="3" x="75.5" y="540.5" rx="1.5" transform="rotate(45, 270, 542)" opacity="0.83"></rect><rect width="435" height="3" x="131.5" y="475.5" rx="1.5" transform="rotate(45, 349, 477)" opacity="0.75"></rect><rect width="315" height="3" x="620.5" y="601.5" rx="1.5" transform="rotate(45, 778, 603)" opacity="0.15"></rect><rect width="432" height="3" x="388" y="434.5" rx="1.5" transform="rotate(45, 604, 436)" opacity="0.57"></rect><rect width="517" height="3" x="498.5" y="538.5" rx="1.5" transform="rotate(45, 757, 540)" opacity="0.27"></rect><rect width="486" height="3" x="-208" y="612.5" rx="1.5" transform="rotate(45, 35, 614)" opacity="0.29"></rect><rect width="471" height="3" x="507.5" y="450.5" rx="1.5" transform="rotate(45, 743, 452)" opacity="0.98"></rect><rect width="319" height="3" x="311.5" y="771.5" rx="1.5" transform="rotate(45, 471, 773)" opacity="0.38"></rect><rect width="45" height="3" x="720.5" y="276.5" rx="1.5" transform="rotate(45, 743, 278)" opacity="0.82"></rect><rect width="67" height="3" x="333.5" y="198.5" rx="1.5" transform="rotate(45, 367, 200)" opacity="0.62"></rect><rect width="608" height="3" x="-55" y="451.5" rx="1.5" transform="rotate(45, 249, 453)" opacity="0.91"></rect><rect width="402" height="3" x="227" y="341.5" rx="1.5" transform="rotate(45, 428, 343)" opacity="0.35"></rect><rect width="392" height="3" x="-28" y="85.5" rx="1.5" transform="rotate(45, 168, 87)" opacity="0.54"></rect><rect width="523" height="3" x="-9.5" y="131.5" rx="1.5" transform="rotate(45, 252, 133)" opacity="0.42"></rect><rect width="122" height="3" x="57" y="169.5" rx="1.5" transform="rotate(45, 118, 171)" opacity="0.53"></rect><rect width="157" height="3" x="646.5" y="688.5" rx="1.5" transform="rotate(45, 725, 690)" opacity="0.90"></rect><rect width="279" height="3" x="197.5" y="128.5" rx="1.5" transform="rotate(45, 337, 130)" opacity="0.43"></rect><rect width="390" height="3" x="17" y="182.5" rx="1.5" transform="rotate(45, 212, 184)" opacity="0.35"></rect><rect width="349" height="3" x="-136.5" y="518.5" rx="1.5" transform="rotate(45, 38, 520)" opacity="0.37"></rect><rect width="80" height="3" x="-22" y="170.5" rx="1.5" transform="rotate(45, 18, 172)" opacity="0.13"></rect><rect width="430" height="3" x="-63" y="671.5" rx="1.5" transform="rotate(45, 152, 673)" opacity="0.98"></rect><rect width="531" height="3" x="-28.5" y="275.5" rx="1.5" transform="rotate(45, 237, 277)" opacity="0.25"></rect><rect width="370" height="3" x="52" y="622.5" rx="1.5" transform="rotate(45, 237, 624)" opacity="0.21"></rect><rect width="487" height="3" x="513.5" y="48.5" rx="1.5" transform="rotate(45, 757, 50)" opacity="0.42"></rect><rect width="628" height="3" x="59" y="731.5" rx="1.5" transform="rotate(45, 373, 733)" opacity="0.30"></rect><rect width="348" height="3" x="495" y="66.5" rx="1.5" transform="rotate(45, 669, 68)" opacity="0.44"></rect><rect width="52" height="3" x="80" y="474.5" rx="1.5" transform="rotate(45, 106, 476)" opacity="0.85"></rect><rect width="558" height="3" x="-74" y="377.5" rx="1.5" transform="rotate(45, 205, 379)" opacity="0.84"></rect><rect width="475" height="3" x="-163.5" y="679.5" rx="1.5" transform="rotate(45, 74, 681)" opacity="0.07"></rect><rect width="366" height="3" x="313" y="179.5" rx="1.5" transform="rotate(45, 496, 181)" opacity="0.21"></rect><rect width="134" height="3" x="432" y="271.5" rx="1.5" transform="rotate(45, 499, 273)" opacity="0.27"></rect><rect width="54" height="3" x="284" y="341.5" rx="1.5" transform="rotate(45, 311, 343)" opacity="0.08"></rect><rect width="220" height="3" x="349" y="58.5" rx="1.5" transform="rotate(45, 459, 60)" opacity="0.77"></rect><rect width="33" height="3" x="94.5" y="744.5" rx="1.5" transform="rotate(45, 111, 746)" opacity="0.20"></rect><rect width="99" height="3" x="565.5" y="771.5" rx="1.5" transform="rotate(45, 615, 773)" opacity="0.96"></rect><rect width="416" height="3" x="301" y="520.5" rx="1.5" transform="rotate(45, 509, 522)" opacity="0.67"></rect><rect width="205" height="3" x="-1.5" y="100.5" rx="1.5" transform="rotate(45, 101, 102)" opacity="0.72"></rect><rect width="198" height="3" x="366" y="710.5" rx="1.5" transform="rotate(45, 465, 712)" opacity="0.13"></rect><rect width="379" height="3" x="376.5" y="725.5" rx="1.5" transform="rotate(45, 566, 727)" opacity="0.76"></rect><rect width="493" height="3" x="384.5" y="667.5" rx="1.5" transform="rotate(45, 631, 669)" opacity="0.17"></rect><rect width="240" height="3" x="-98" y="724.5" rx="1.5" transform="rotate(45, 22, 726)" opacity="0.71"></rect><rect width="201" height="3" x="101.5" y="732.5" rx="1.5" transform="rotate(45, 202, 734)" opacity="0.15"></rect><rect width="339" height="3" x="514.5" y="749.5" rx="1.5" transform="rotate(45, 684, 751)" opacity="0.44"></rect><rect width="285" height="3" x="398.5" y="606.5" rx="1.5" transform="rotate(45, 541, 608)" opacity="0.92"></rect><rect width="579" height="3" x="317.5" y="526.5" rx="1.5" transform="rotate(45, 607, 528)" opacity="0.54"></rect><rect width="496" height="3" x="140" y="272.5" rx="1.5" transform="rotate(45, 388, 274)" opacity="0.58"></rect><rect width="226" height="3" x="283" y="410.5" rx="1.5" transform="rotate(45, 396, 412)" opacity="0.41"></rect><rect width="429" height="3" x="62.5" y="764.5" rx="1.5" transform="rotate(45, 277, 766)" opacity="0.88"></rect><rect width="43" height="3" x="323.5" y="568.5" rx="1.5" transform="rotate(45, 345, 570)" opacity="0.63"></rect><rect width="445" height="3" x="-165.5" y="269.5" rx="1.5" transform="rotate(45, 57, 271)" opacity="0.10"></rect><rect width="94" height="3" x="527" y="89.5" rx="1.5" transform="rotate(45, 574, 91)" opacity="0.15"></rect><rect width="96" height="3" x="255" y="671.5" rx="1.5" transform="rotate(45, 303, 673)" opacity="0.41"></rect><rect width="167" height="3" x="35.5" y="324.5" rx="1.5" transform="rotate(45, 119, 326)" opacity="0.33"></rect><rect width="42" height="3" x="62" y="782.5" rx="1.5" transform="rotate(45, 83, 784)" opacity="0.08"></rect><rect width="225" height="3" x="486.5" y="305.5" rx="1.5" transform="rotate(45, 599, 307)" opacity="0.67"></rect><rect width="184" height="3" x="543" y="603.5" rx="1.5" transform="rotate(45, 635, 605)" opacity="0.82"></rect><rect width="107" height="3" x="127.5" y="535.5" rx="1.5" transform="rotate(45, 181, 537)" opacity="0.36"></rect><rect width="606" height="3" x="449" y="168.5" rx="1.5" transform="rotate(45, 752, 170)" opacity="0.98"></rect><rect width="489" height="3" x="82.5" y="40.5" rx="1.5" transform="rotate(45, 327, 42)" opacity="0.10"></rect><rect width="367" height="3" x="-26.5" y="238.5" rx="1.5" transform="rotate(45, 157, 240)" opacity="0.95"></rect><rect width="367" height="3" x="459.5" y="204.5" rx="1.5" transform="rotate(45, 643, 206)" opacity="0.54"></rect><rect width="324" height="3" x="329" y="656.5" rx="1.5" transform="rotate(45, 491, 658)" opacity="0.63"></rect><rect width="153" height="3" x="-38.5" y="121.5" rx="1.5" transform="rotate(45, 38, 123)" opacity="0.18"></rect><rect width="264" height="3" x="607" y="636.5" rx="1.5" transform="rotate(45, 739, 638)" opacity="0.82"></rect><rect width="452" height="3" x="-108" y="591.5" rx="1.5" transform="rotate(45, 118, 593)" opacity="0.69"></rect><rect width="365" height="3" x="583.5" y="752.5" rx="1.5" transform="rotate(45, 766, 754)" opacity="0.31"></rect><rect width="360" height="3" x="-137" y="207.5" rx="1.5" transform="rotate(45, 43, 209)" opacity="0.82"></rect><rect width="579" height="3" x="-257.5" y="381.5" rx="1.5" transform="rotate(45, 32, 383)" opacity="0.85"></rect></g></svg>